<svg width="408" height="258" viewBox="0 0 408 258" fill="none" xmlns="http://www.w3.org/2000/svg">
<g filter="url(#filter0_d_13_390)">
<path d="M4 17C4 7.61116 11.6112 0 21 0H387C396.389 0 404 7.61116 404 17V233C404 242.389 396.389 250 387 250H21C11.6112 250 4 242.389 4 233V17Z" fill="url(#paint0_linear_13_390)"/>
<mask id="mask0_13_390" style="mask-type:alpha" maskUnits="userSpaceOnUse" x="4" y="0" width="400" height="250">
<path d="M4 17C4 7.61116 11.6112 0 21 0H387C396.389 0 404 7.61116 404 17V233C404 242.389 396.389 250 387 250H21C11.6112 250 4 242.389 4 233V17Z" fill="url(#paint1_linear_13_390)"/>
</mask>
<g mask="url(#mask0_13_390)">
<g opacity="0.18">
<path d="M362.231 172.139C361.955 173.392 360.721 174.181 359.468 173.906C358.215 173.63 357.426 172.397 357.701 171.143C357.977 169.89 359.211 169.101 360.464 169.377C361.717 169.652 362.506 170.886 362.231 172.139Z" fill="white"/>
<path d="M361.944 162.643C363.136 162.905 364.315 162.151 364.577 160.959C364.839 159.766 364.085 158.587 362.893 158.325C361.7 158.063 360.521 158.817 360.259 160.01C359.997 161.202 360.751 162.381 361.944 162.643Z" fill="white"/>
<path d="M364.413 151.411C365.555 151.662 366.684 150.939 366.935 149.797C367.187 148.655 366.464 147.525 365.322 147.274C364.179 147.023 363.05 147.746 362.799 148.888C362.548 150.03 363.27 151.16 364.413 151.411Z" fill="white"/>
<path d="M369.264 138.629C369.025 139.716 367.957 140.399 366.87 140.16C365.783 139.921 365.099 138.853 365.338 137.766C365.577 136.679 366.645 135.996 367.732 136.235C368.819 136.474 369.502 137.542 369.264 138.629Z" fill="white"/>
<path d="M369.357 128.916C370.382 129.141 371.396 128.493 371.622 127.467C371.847 126.442 371.199 125.427 370.173 125.202C369.147 124.977 368.133 125.625 367.908 126.651C367.683 127.676 368.331 128.691 369.357 128.916Z" fill="white"/>
<path d="M373.965 116.302C373.753 117.268 372.795 117.881 371.829 117.668C370.863 117.456 370.25 116.499 370.462 115.532C370.675 114.566 371.632 113.954 372.599 114.166C373.565 114.378 374.177 115.336 373.965 116.302Z" fill="white"/>
<path d="M376.308 105.137C376.109 106.043 375.207 106.62 374.301 106.421C373.395 106.222 372.818 105.32 373.017 104.414C373.216 103.508 374.118 102.931 375.024 103.13C375.93 103.329 376.507 104.231 376.308 105.137Z" fill="white"/>
<path d="M378.651 93.9722C378.462 94.8327 377.618 95.3594 376.773 95.1736C375.928 94.9878 375.386 94.1407 375.572 93.2952C375.757 92.4498 376.605 91.908 377.45 92.0938C378.295 92.2796 378.837 93.1267 378.651 93.9722Z" fill="white"/>
<path d="M379.245 83.9261C380.046 84.1021 380.837 83.5958 381.013 82.7954C381.189 81.9949 380.683 81.2034 379.882 81.0275C379.082 80.8515 378.29 81.3578 378.114 82.1583C377.938 82.9587 378.445 83.7502 379.245 83.9261Z" fill="white"/>
<path d="M383.356 71.6303C383.194 72.3701 382.457 72.8413 381.717 72.6787C380.977 72.5161 380.506 71.7795 380.669 71.0397C380.832 70.2999 381.568 69.8288 382.308 69.9914C383.048 70.154 383.519 70.8906 383.356 71.6303Z" fill="white"/>
<path d="M385.699 60.4653C385.55 61.1447 384.869 61.5805 384.189 61.4312C383.51 61.2819 383.074 60.6005 383.223 59.9211C383.373 59.2418 384.054 58.8059 384.734 58.9553C385.413 59.1046 385.849 59.786 385.699 60.4653Z" fill="white"/>
<path d="M386.661 50.1837C387.287 50.3212 387.905 49.9257 388.043 49.3003C388.18 48.675 387.785 48.0566 387.159 47.9192C386.534 47.7817 385.915 48.1772 385.778 48.8026C385.641 49.4279 386.036 50.0463 386.661 50.1837Z" fill="white"/>
<path d="M346.016 235.11C347.267 235.385 348.504 234.594 348.778 233.343C349.053 232.092 348.262 230.856 347.012 230.581C345.761 230.306 344.524 231.097 344.249 232.348C343.974 233.598 344.765 234.835 346.016 235.11Z" fill="white"/>
<path d="M341.891 243.509C342.153 242.317 343.332 241.563 344.524 241.825C345.717 242.087 346.471 243.266 346.209 244.458C345.947 245.651 344.768 246.405 343.575 246.143C342.383 245.881 341.629 244.702 341.891 243.509Z" fill="white"/>
<path d="M354.13 170.833C354.181 172.111 353.2 173.193 351.919 173.259C350.641 173.311 349.559 172.329 349.493 171.048C349.441 169.771 350.423 168.689 351.703 168.622C352.981 168.571 354.063 169.552 354.13 170.833Z" fill="white"/>
<path d="M353.515 159.445C353.564 160.659 352.623 161.702 351.406 161.767C350.192 161.817 349.149 160.875 349.084 159.658C349.034 158.445 349.976 157.401 351.193 157.336C352.407 157.287 353.45 158.228 353.515 159.445Z" fill="white"/>
<path d="M352.888 148.039C352.948 149.207 352.035 150.194 350.87 150.238C349.701 150.298 348.715 149.385 348.67 148.22C348.61 147.051 349.524 146.065 350.689 146.02C351.857 145.961 352.843 146.874 352.888 148.039Z" fill="white"/>
<path d="M352.258 136.648C352.316 137.753 351.446 138.685 350.342 138.743C349.237 138.801 348.304 137.931 348.246 136.827C348.188 135.722 349.058 134.789 350.163 134.731C351.268 134.673 352.2 135.543 352.258 136.648Z" fill="white"/>
<path d="M351.643 125.26C351.696 126.316 350.885 127.198 349.832 127.236C348.776 127.289 347.894 126.478 347.856 125.425C347.803 124.369 348.614 123.486 349.667 123.449C350.723 123.396 351.606 124.207 351.643 125.26Z" fill="white"/>
<path d="M351.013 113.869C351.064 114.861 350.293 115.705 349.304 115.741C348.312 115.792 347.468 115.021 347.432 114.031C347.381 113.039 348.152 112.196 349.142 112.16C350.134 112.109 350.977 112.88 351.013 113.869Z" fill="white"/>
<path d="M350.387 102.463C350.436 103.391 349.708 104.181 348.779 104.23C347.851 104.279 347.061 103.552 347.012 102.623C346.963 101.694 347.69 100.905 348.619 100.856C349.548 100.806 350.337 101.534 350.387 102.463Z" fill="white"/>
<path d="M349.772 91.0747C349.816 91.9549 349.132 92.6908 348.27 92.723C347.39 92.7669 346.654 92.0829 346.622 91.2212C346.578 90.3411 347.262 89.6051 348.123 89.573C349.004 89.529 349.74 90.213 349.772 91.0747Z" fill="white"/>
<path d="M349.142 79.6836C349.184 80.5001 348.543 81.1823 347.727 81.2244C346.91 81.2665 346.228 80.6259 346.186 79.8095C346.144 78.9931 346.785 78.3109 347.601 78.2688C348.417 78.2267 349.1 78.8672 349.142 79.6836Z" fill="white"/>
<path d="M348.512 68.2925C348.552 69.0452 347.967 69.6921 347.199 69.7291C346.446 69.7694 345.799 69.1841 345.762 68.4163C345.722 67.6636 346.307 67.0167 347.075 66.9797C347.828 66.9394 348.475 67.5247 348.512 68.2925Z" fill="white"/>
<path d="M347.897 56.9046C347.932 57.6087 347.39 58.2018 346.689 58.2219C345.985 58.257 345.392 57.7152 345.372 57.0144C345.337 56.3103 345.879 55.7172 346.58 55.6972C347.284 55.662 347.877 56.2038 347.897 56.9046Z" fill="white"/>
<path d="M347.27 45.4984C347.304 46.1388 346.805 46.6781 346.165 46.7115C345.524 46.7448 344.985 46.2464 344.952 45.6061C344.918 44.9657 345.417 44.4263 346.057 44.393C346.698 44.3596 347.237 44.858 347.27 45.4984Z" fill="white"/>
<path d="M352.335 233.65C352.284 232.373 353.265 231.291 354.546 231.224C355.824 231.172 356.906 232.154 356.972 233.435C357.024 234.712 356.042 235.794 354.761 235.861C353.484 235.913 352.402 234.931 352.335 233.65Z" fill="white"/>
<path d="M352.965 245.041C352.916 243.828 353.857 242.784 355.074 242.719C356.288 242.67 357.331 243.611 357.396 244.828C357.461 246.045 356.504 247.085 355.287 247.15C354.074 247.2 353.03 246.258 352.965 245.041Z" fill="white"/>
<path d="M345.97 171.667C346.35 172.89 345.682 174.199 344.459 174.579C343.236 174.959 341.927 174.292 341.547 173.069C341.167 171.846 341.834 170.536 343.057 170.156C344.28 169.776 345.59 170.444 345.97 171.667Z" fill="white"/>
<path d="M342.419 160.821C342.794 161.995 342.143 163.229 340.983 163.607C339.809 163.982 338.575 163.331 338.197 162.172C337.822 160.997 338.473 159.764 339.632 159.385C340.807 159.01 342.04 159.661 342.419 160.821Z" fill="white"/>
<path d="M338.868 149.975C339.226 151.082 338.6 152.274 337.496 152.617C336.388 152.975 335.196 152.349 334.853 151.245C334.495 150.137 335.121 148.945 336.225 148.602C337.333 148.244 338.525 148.87 338.868 149.975Z" fill="white"/>
<path d="M335.313 139.143C335.651 140.199 335.072 141.322 334.016 141.66C332.961 141.997 331.838 141.418 331.5 140.363C331.162 139.307 331.742 138.184 332.797 137.847C333.852 137.509 334.975 138.088 335.313 139.143Z" fill="white"/>
<path d="M331.762 128.297C332.08 129.301 331.529 130.367 330.525 130.684C329.522 131.002 328.456 130.451 328.138 129.447C327.821 128.444 328.372 127.378 329.375 127.06C330.379 126.743 331.445 127.294 331.762 128.297Z" fill="white"/>
<path d="M328.211 117.451C328.512 118.388 327.989 119.396 327.049 119.712C326.11 120.028 325.104 119.49 324.788 118.55C324.473 117.611 325.01 116.605 325.95 116.289C326.887 115.989 327.895 116.511 328.211 117.451Z" fill="white"/>
<path d="M324.66 106.605C324.94 107.489 324.446 108.441 323.562 108.722C322.677 109.002 321.725 108.508 321.445 107.623C321.165 106.739 321.659 105.787 322.543 105.506C323.428 105.226 324.38 105.72 324.66 106.605Z" fill="white"/>
<path d="M321.109 95.7586C321.369 96.5913 320.903 97.486 320.086 97.7494C319.253 98.0096 318.358 97.5439 318.095 96.7263C317.835 95.8936 318.301 94.9989 319.118 94.7354C319.951 94.4753 320.849 94.9259 321.109 95.7586Z" fill="white"/>
<path d="M317.558 84.9125C317.798 85.6933 317.379 86.5191 316.595 86.7741C315.814 87.014 314.988 86.5951 314.733 85.811C314.493 85.0303 314.912 84.2044 315.696 83.9494C316.477 83.7095 317.303 84.1284 317.558 84.9125Z" fill="white"/>
<path d="M314.004 74.0814C314.227 74.7951 313.833 75.579 313.119 75.8019C312.402 76.04 311.621 75.631 311.398 74.9173C311.175 74.2036 311.569 73.4197 312.283 73.1967C313 72.9587 313.781 73.3676 314.004 74.0814Z" fill="white"/>
<path d="M310.453 63.2352C310.67 63.9003 310.293 64.6087 309.628 64.8265C308.963 65.0443 308.254 64.6671 308.037 64.0019C307.819 63.3368 308.196 62.6284 308.861 62.4106C309.526 62.1928 310.235 62.57 310.453 63.2352Z" fill="white"/>
<path d="M306.901 52.389C307.099 53.0021 306.75 53.6535 306.152 53.8544C305.539 54.052 304.888 53.7031 304.687 53.105C304.489 52.4918 304.838 51.8405 305.436 51.6396C306.034 51.4386 306.701 51.7909 306.901 52.389Z" fill="white"/>
<path d="M360.498 232.801C360.118 231.578 360.786 230.269 362.009 229.889C363.232 229.509 364.541 230.176 364.921 231.4C365.302 232.623 364.634 233.932 363.411 234.312C362.188 234.692 360.879 234.024 360.498 232.801Z" fill="white"/>
<path d="M364.05 243.648C363.675 242.473 364.326 241.239 365.485 240.861C366.659 240.486 367.893 241.137 368.271 242.296C368.646 243.471 367.995 244.705 366.836 245.083C365.662 245.458 364.428 244.807 364.05 243.648Z" fill="white"/>
<path d="M338.316 174.59C339.011 175.677 338.696 177.111 337.613 177.791C336.529 178.471 335.092 178.17 334.412 177.087C333.717 176.001 334.032 174.567 335.115 173.887C336.202 173.192 337.636 173.507 338.316 174.59Z" fill="white"/>
<path d="M332.075 165.036C332.735 166.067 332.433 167.441 331.402 168.101C330.37 168.761 328.997 168.459 328.337 167.427C327.677 166.396 327.979 165.022 329.011 164.363C330.042 163.703 331.416 164.005 332.075 165.036Z" fill="white"/>
<path d="M325.835 155.482C326.459 156.458 326.17 157.772 325.194 158.396C324.218 159.02 322.905 158.731 322.28 157.755C321.656 156.779 321.945 155.466 322.921 154.842C323.897 154.217 325.21 154.506 325.835 155.482Z" fill="white"/>
<path d="M319.594 145.928C320.195 146.867 319.923 148.105 318.987 148.691C318.051 149.277 316.81 149.02 316.224 148.084C315.623 147.145 315.895 145.907 316.831 145.321C317.77 144.72 319.008 144.992 319.594 145.928Z" fill="white"/>
<path d="M311.358 139.259C312.384 139.485 313.398 138.836 313.623 137.81C313.849 136.785 313.2 135.771 312.174 135.545C311.149 135.32 310.135 135.969 309.909 136.994C309.684 138.02 310.332 139.034 311.358 139.259Z" fill="white"/>
<path d="M307.128 126.823C307.658 127.652 307.412 128.769 306.583 129.299C305.755 129.829 304.638 129.584 304.107 128.755C303.577 127.926 303.823 126.809 304.652 126.279C305.48 125.749 306.598 125.995 307.128 126.823Z" fill="white"/>
<path d="M300.89 117.254C301.397 118.046 301.168 119.088 300.379 119.579C299.591 120.071 298.546 119.857 298.054 119.068C297.548 118.276 297.777 117.235 298.565 116.743C299.357 116.237 300.399 116.466 300.89 117.254Z" fill="white"/>
<path d="M294.649 107.7C295.121 108.437 294.905 109.418 294.168 109.889C293.432 110.361 292.45 110.145 291.979 109.408C291.508 108.672 291.724 107.69 292.46 107.219C293.197 106.748 294.178 106.964 294.649 107.7Z" fill="white"/>
<path d="M288.409 98.1464C288.845 98.8277 288.642 99.7487 287.961 100.184C287.279 100.62 286.359 100.418 285.923 99.7365C285.487 99.0552 285.689 98.1342 286.371 97.6984C287.052 97.2626 287.973 97.465 288.409 98.1464Z" fill="white"/>
<path d="M282.183 88.5957C282.595 89.2402 282.41 90.0856 281.768 90.4828C281.124 90.8951 280.278 90.7093 279.881 90.068C279.484 89.4268 279.655 88.578 280.296 88.1809C280.937 87.7837 281.786 87.9544 282.183 88.5957Z" fill="white"/>
<path d="M275.942 79.0417C276.319 79.631 276.147 80.4161 275.558 80.793C274.968 81.1699 274.183 80.9974 273.806 80.4081C273.429 79.8188 273.602 79.0337 274.191 78.6568C274.78 78.2799 275.566 78.4524 275.942 79.0417Z" fill="white"/>
<path d="M268.477 71.2443C269.102 71.3817 269.721 70.9862 269.858 70.3609C269.995 69.7355 269.6 69.1172 268.975 68.9797C268.349 68.8423 267.731 69.2378 267.593 69.8631C267.456 70.4885 267.851 71.1068 268.477 71.2443Z" fill="white"/>
<path d="M368.167 229.881C367.472 228.795 367.788 227.36 368.871 226.681C369.957 225.986 371.392 226.301 372.071 227.384C372.766 228.471 372.451 229.905 371.368 230.585C370.281 231.28 368.847 230.964 368.167 229.881Z" fill="white"/>
<path d="M374.405 239.45C373.745 238.419 374.047 237.045 375.078 236.386C376.11 235.726 377.483 236.028 378.143 237.059C378.803 238.09 378.501 239.464 377.469 240.124C376.438 240.784 375.064 240.482 374.405 239.45Z" fill="white"/>
<path d="M380.645 249.004C380.021 248.028 380.31 246.715 381.286 246.091C382.262 245.466 383.575 245.755 384.2 246.731C384.824 247.707 384.535 249.021 383.559 249.645C382.583 250.269 381.27 249.98 380.645 249.004Z" fill="white"/>
<path d="M331.658 179.394C332.609 180.252 332.666 181.721 331.808 182.672C330.95 183.623 329.481 183.68 328.53 182.822C327.579 181.964 327.522 180.495 328.38 179.544C329.238 178.593 330.707 178.536 331.658 179.394Z" fill="white"/>
<path d="M323.17 171.783C324.079 172.616 324.137 174.006 323.304 174.915C322.472 175.824 321.082 175.883 320.173 175.05C319.264 174.217 319.205 172.827 320.038 171.918C320.871 171.009 322.261 170.951 323.17 171.783Z" fill="white"/>
<path d="M314.667 164.169C315.522 164.959 315.594 166.288 314.804 167.143C314.015 167.999 312.686 168.07 311.83 167.281C310.975 166.492 310.903 165.162 311.693 164.307C312.482 163.452 313.811 163.38 314.667 164.169Z" fill="white"/>
<path d="M306.164 156.556C306.98 157.305 307.035 158.567 306.286 159.384C305.537 160.2 304.274 160.255 303.458 159.506C302.641 158.757 302.586 157.494 303.335 156.678C304.085 155.861 305.347 155.806 306.164 156.556Z" fill="white"/>
<path d="M297.676 148.945C298.454 149.654 298.507 150.853 297.798 151.631C297.089 152.408 295.89 152.462 295.112 151.752C294.334 151.043 294.281 149.845 294.99 149.067C295.699 148.289 296.898 148.236 297.676 148.945Z" fill="white"/>
<path d="M289.176 141.316C289.9 141.982 289.967 143.12 289.283 143.856C288.599 144.592 287.479 144.646 286.743 143.962C286.007 143.278 285.952 142.158 286.633 141.437C287.302 140.698 288.437 140.647 289.173 141.331L289.176 141.316Z" fill="white"/>
<path d="M280.673 133.702C281.359 134.327 281.408 135.399 280.783 136.084C280.157 136.77 279.086 136.819 278.4 136.194C277.715 135.568 277.665 134.497 278.291 133.811C278.916 133.126 279.988 133.076 280.673 133.702Z" fill="white"/>
<path d="M272.185 126.091C272.832 126.677 272.88 127.684 272.279 128.328C271.694 128.975 270.686 129.022 270.043 128.422C269.399 127.821 269.348 126.829 269.949 126.185C270.534 125.538 271.542 125.491 272.185 126.091Z" fill="white"/>
<path d="M263.682 118.477C264.29 119.023 264.321 119.963 263.776 120.571C263.231 121.179 262.29 121.21 261.682 120.665C261.074 120.12 261.043 119.179 261.588 118.571C262.133 117.963 263.074 117.932 263.682 118.477Z" fill="white"/>
<path d="M255.179 110.863C255.73 111.38 255.778 112.245 255.261 112.796C254.759 113.351 253.879 113.395 253.328 112.878C252.777 112.361 252.729 111.496 253.246 110.945C253.763 110.394 254.628 110.347 255.179 110.863Z" fill="white"/>
<path d="M246.691 103.253C247.204 103.729 247.249 104.531 246.772 105.043C246.296 105.556 245.495 105.601 244.982 105.125C244.47 104.648 244.424 103.847 244.901 103.334C245.377 102.822 246.179 102.776 246.691 103.253Z" fill="white"/>
<path d="M238.192 95.6238C238.665 96.0603 238.694 96.7946 238.257 97.2684C237.821 97.7422 237.087 97.7708 236.613 97.3343C236.139 96.8978 236.11 96.1635 236.547 95.6897C236.983 95.2158 237.718 95.1873 238.192 95.6238Z" fill="white"/>
<path d="M374.811 225.074C373.86 224.216 373.803 222.748 374.661 221.797C375.518 220.846 376.987 220.789 377.938 221.647C378.889 222.504 378.946 223.973 378.088 224.924C377.23 225.875 375.762 225.932 374.811 225.074Z" fill="white"/>
<path d="M383.31 232.703C382.401 231.87 382.343 230.481 383.176 229.572C384.008 228.663 385.398 228.604 386.307 229.437C387.216 230.27 387.275 231.659 386.442 232.568C385.609 233.477 384.219 233.536 383.31 232.703Z" fill="white"/>
<path d="M391.813 240.317C390.958 239.528 390.886 238.198 391.676 237.343C392.465 236.488 393.794 236.416 394.65 237.205C395.505 237.995 395.577 239.324 394.787 240.179C393.998 241.035 392.669 241.106 391.813 240.317Z" fill="white"/>
<path d="M400.301 247.928C399.485 247.178 399.43 245.916 400.179 245.099C400.928 244.283 402.191 244.228 403.007 244.977C403.824 245.726 403.879 246.989 403.129 247.805C402.38 248.622 401.118 248.677 400.301 247.928Z" fill="white"/>
<path d="M326.492 185.76C327.63 186.343 328.079 187.755 327.481 188.89C326.899 190.028 325.487 190.477 324.352 189.88C323.214 189.297 322.764 187.885 323.362 186.75C323.944 185.612 325.357 185.163 326.492 185.76Z" fill="white"/>
<path d="M316.308 180.61C317.389 181.164 317.821 182.51 317.248 183.602C316.694 184.683 315.349 185.116 314.256 184.543C313.175 183.989 312.743 182.644 313.315 181.551C313.87 180.47 315.215 180.037 316.308 180.61Z" fill="white"/>
<path d="M306.127 175.445C307.163 175.989 307.566 177.249 307.037 178.288C306.508 179.327 305.233 179.727 304.194 179.198C303.158 178.654 302.755 177.394 303.284 176.355C303.828 175.319 305.088 174.915 306.127 175.445Z" fill="white"/>
<path d="M295.943 170.294C296.922 170.81 297.305 172.018 296.804 173C296.289 173.978 295.081 174.362 294.099 173.861C293.12 173.345 292.737 172.137 293.237 171.155C293.753 170.177 294.961 169.793 295.943 170.294Z" fill="white"/>
<path d="M285.777 165.132C286.714 165.623 287.066 166.76 286.593 167.685C286.102 168.622 284.965 168.973 284.04 168.501C283.103 168.01 282.752 166.872 283.224 165.947C283.715 165.011 284.853 164.659 285.777 165.132Z" fill="white"/>
<path d="M275.593 159.981C276.473 160.444 276.823 161.518 276.36 162.397C275.898 163.277 274.824 163.626 273.944 163.164C273.065 162.702 272.715 161.628 273.178 160.748C273.64 159.869 274.714 159.519 275.593 159.981Z" fill="white"/>
<path d="M265.413 154.816C266.235 155.25 266.568 156.257 266.131 157.094C265.697 157.917 264.69 158.249 263.852 157.812C263.014 157.375 262.697 156.371 263.134 155.534C263.572 154.696 264.575 154.378 265.413 154.816Z" fill="white"/>
<path d="M255.229 149.665C256.009 150.074 256.307 151.026 255.901 151.791C255.492 152.572 254.54 152.869 253.775 152.464C252.994 152.055 252.697 151.103 253.103 150.338C253.512 149.557 254.463 149.26 255.229 149.665Z" fill="white"/>
<path d="M245.063 144.503C245.787 144.884 246.067 145.768 245.702 146.495C245.321 147.219 244.436 147.499 243.71 147.134C242.986 146.753 242.706 145.868 243.071 145.142C243.452 144.418 244.336 144.138 245.063 144.503Z" fill="white"/>
<path d="M234.879 139.353C235.546 139.705 235.809 140.522 235.469 141.207C235.117 141.874 234.299 142.137 233.614 141.797C232.948 141.445 232.684 140.627 233.025 139.942C233.377 139.276 234.194 139.012 234.879 139.353Z" fill="white"/>
<path d="M224.695 134.202C225.32 134.529 225.563 135.295 225.239 135.904C224.912 136.529 224.146 136.772 223.537 136.448C222.912 136.121 222.669 135.355 222.993 134.746C223.32 134.122 224.086 133.878 224.695 134.202Z" fill="white"/>
<path d="M214.515 129.037C215.082 129.336 215.308 130.034 215.01 130.602C214.711 131.169 214.012 131.395 213.445 131.096C212.877 130.798 212.651 130.099 212.95 129.532C213.249 128.964 213.947 128.738 214.515 129.037Z" fill="white"/>
<path d="M379.988 218.726C378.85 218.144 378.401 216.731 378.999 215.597C379.581 214.458 380.994 214.009 382.128 214.607C383.266 215.189 383.716 216.602 383.118 217.736C382.536 218.875 381.123 219.324 379.988 218.726Z" fill="white"/>
<path d="M390.172 223.877C389.091 223.322 388.659 221.977 389.232 220.884C389.786 219.803 391.131 219.371 392.224 219.944C393.305 220.498 393.737 221.843 393.165 222.936C392.611 224.017 391.265 224.449 390.172 223.877Z" fill="white"/>
<path d="M400.356 229.027C399.321 228.483 398.917 227.223 399.446 226.184C399.99 225.148 401.25 224.745 402.289 225.274C403.325 225.818 403.729 227.078 403.199 228.117C402.655 229.153 401.395 229.556 400.356 229.027Z" fill="white"/>
<path d="M323.136 193.253C324.389 193.528 325.178 194.762 324.902 196.015C324.627 197.268 323.393 198.057 322.14 197.782C320.887 197.506 320.098 196.272 320.373 195.019C320.649 193.766 321.883 192.977 323.136 193.253Z" fill="white"/>
<path d="M311.959 190.891C313.152 191.153 313.905 192.332 313.643 193.524C313.381 194.717 312.202 195.471 311.01 195.209C309.817 194.947 309.063 193.768 309.325 192.575C309.588 191.383 310.766 190.629 311.959 190.891Z" fill="white"/>
<path d="M299.885 192.684C301.027 192.935 302.156 192.213 302.408 191.071C302.659 189.928 301.936 188.799 300.794 188.548C299.652 188.297 298.522 189.019 298.271 190.161C298.02 191.304 298.742 192.433 299.885 192.684Z" fill="white"/>
<path d="M289.629 186.205C290.716 186.443 291.399 187.512 291.16 188.599C290.921 189.686 289.853 190.369 288.766 190.13C287.679 189.891 286.996 188.823 287.235 187.736C287.474 186.649 288.542 185.966 289.629 186.205Z" fill="white"/>
<path d="M277.648 187.575C278.673 187.801 279.687 187.152 279.913 186.127C280.138 185.101 279.489 184.087 278.464 183.861C277.438 183.636 276.424 184.285 276.199 185.31C275.973 186.336 276.622 187.35 277.648 187.575Z" fill="white"/>
<path d="M267.299 181.518C268.265 181.731 268.878 182.688 268.665 183.654C268.453 184.621 267.495 185.233 266.529 185.021C265.563 184.808 264.95 183.851 265.163 182.885C265.375 181.918 266.333 181.306 267.299 181.518Z" fill="white"/>
<path d="M255.41 182.466C256.319 182.666 257.218 182.091 257.418 181.182C257.618 180.273 257.043 179.375 256.134 179.175C255.225 178.975 254.326 179.55 254.127 180.459C253.927 181.368 254.502 182.266 255.41 182.466Z" fill="white"/>
<path d="M244.972 176.817C245.833 177.006 246.359 177.85 246.174 178.695C245.988 179.54 245.141 180.082 244.295 179.897C243.45 179.711 242.908 178.864 243.094 178.018C243.28 177.173 244.127 176.631 244.972 176.817Z" fill="white"/>
<path d="M233.155 177.369C233.955 177.545 234.747 177.038 234.923 176.238C235.099 175.438 234.592 174.646 233.792 174.47C232.992 174.294 232.2 174.8 232.024 175.601C231.848 176.401 232.354 177.193 233.155 177.369Z" fill="white"/>
<path d="M222.627 172.127C223.367 172.29 223.838 173.026 223.675 173.766C223.513 174.506 222.776 174.977 222.036 174.814C221.297 174.652 220.825 173.915 220.988 173.175C221.151 172.436 221.887 171.964 222.627 172.127Z" fill="white"/>
<path d="M211.462 169.784C212.141 169.933 212.577 170.615 212.428 171.294C212.279 171.973 211.597 172.409 210.918 172.26C210.238 172.11 209.803 171.429 209.952 170.75C210.101 170.07 210.783 169.634 211.462 169.784Z" fill="white"/>
<path d="M199.799 169.705C200.425 169.843 201.043 169.447 201.18 168.822C201.318 168.196 200.922 167.578 200.297 167.441C199.672 167.303 199.053 167.699 198.916 168.324C198.778 168.949 199.174 169.568 199.799 169.705Z" fill="white"/>
<path d="M383.344 211.234C382.091 210.959 381.302 209.725 381.578 208.472C381.853 207.219 383.087 206.429 384.34 206.705C385.593 206.98 386.382 208.214 386.107 209.467C385.831 210.72 384.597 211.509 383.344 211.234Z" fill="white"/>
<path d="M394.509 213.577C393.317 213.315 392.563 212.136 392.825 210.944C393.087 209.751 394.266 208.997 395.458 209.259C396.651 209.522 397.405 210.7 397.143 211.893C396.881 213.085 395.702 213.839 394.509 213.577Z" fill="white"/>
<path d="M405.671 215.935C406.813 216.186 407.943 215.464 408.194 214.322C408.445 213.179 407.723 212.05 406.58 211.799C405.438 211.548 404.308 212.27 404.057 213.413C403.806 214.555 404.529 215.684 405.671 215.935Z" fill="white"/>
<path d="M321.833 201.339C323.111 201.287 324.193 202.269 324.259 203.549C324.311 204.827 323.329 205.909 322.048 205.976C320.771 206.027 319.689 205.046 319.622 203.765C319.571 202.487 320.552 201.405 321.833 201.339Z" fill="white"/>
<path d="M310.442 201.969C311.656 201.919 312.699 202.86 312.764 204.077C312.814 205.291 311.872 206.335 310.655 206.399C309.441 206.449 308.398 205.508 308.333 204.291C308.283 203.077 309.225 202.033 310.442 201.969Z" fill="white"/>
<path d="M299.036 202.595C300.204 202.536 301.191 203.449 301.235 204.614C301.295 205.782 300.382 206.769 299.217 206.813C298.048 206.873 297.062 205.96 297.017 204.795C296.958 203.626 297.871 202.64 299.036 202.595Z" fill="white"/>
<path d="M287.648 203.21C288.753 203.152 289.685 204.022 289.743 205.127C289.801 206.231 288.931 207.164 287.827 207.222C286.722 207.28 285.789 206.41 285.731 205.305C285.673 204.201 286.543 203.268 287.648 203.21Z" fill="white"/>
<path d="M276.257 203.84C277.313 203.787 278.195 204.599 278.233 205.651C278.285 206.708 277.474 207.59 276.421 207.627C275.365 207.68 274.483 206.869 274.446 205.816C274.393 204.76 275.204 203.878 276.257 203.84Z" fill="white"/>
<path d="M264.866 204.47C265.858 204.419 266.702 205.19 266.737 206.179C266.788 207.172 266.017 208.015 265.028 208.051C264.039 208.087 263.192 207.331 263.156 206.342C263.121 205.353 263.877 204.506 264.866 204.47Z" fill="white"/>
<path d="M253.463 205.082C254.391 205.033 255.181 205.76 255.23 206.689C255.279 207.618 254.552 208.407 253.623 208.456C252.694 208.505 251.905 207.778 251.856 206.849C251.806 205.92 252.534 205.131 253.463 205.082Z" fill="white"/>
<path d="M242.072 205.712C242.952 205.668 243.688 206.352 243.72 207.213C243.764 208.094 243.08 208.829 242.218 208.862C241.338 208.906 240.602 208.222 240.57 207.36C240.526 206.48 241.21 205.744 242.072 205.712Z" fill="white"/>
<path d="M230.68 206.342C231.497 206.3 232.179 206.94 232.221 207.757C232.263 208.573 231.623 209.255 230.806 209.297C229.99 209.339 229.308 208.699 229.266 207.882C229.223 207.066 229.864 206.384 230.68 206.342Z" fill="white"/>
<path d="M219.293 206.957C220.045 206.916 220.692 207.502 220.729 208.269C220.769 209.022 220.184 209.669 219.416 209.706C218.664 209.746 218.017 209.161 217.98 208.393C217.943 207.625 218.525 206.994 219.293 206.957Z" fill="white"/>
<path d="M207.901 207.586C208.605 207.551 209.199 208.093 209.219 208.794C209.254 209.498 208.712 210.091 208.011 210.111C207.307 210.146 206.714 209.605 206.694 208.904C206.659 208.2 207.201 207.607 207.901 207.586Z" fill="white"/>
<path d="M196.498 208.198C197.139 208.165 197.678 208.663 197.711 209.303C197.745 209.944 197.246 210.483 196.606 210.517C195.966 210.55 195.426 210.051 195.393 209.411C195.36 208.771 195.858 208.231 196.498 208.198Z" fill="white"/>
<path d="M384.65 203.133C383.373 203.185 382.291 202.203 382.224 200.922C382.172 199.645 383.154 198.563 384.435 198.496C385.712 198.444 386.794 199.426 386.861 200.707C386.913 201.984 385.931 203.066 384.65 203.133Z" fill="white"/>
<path d="M396.038 202.518C394.824 202.568 393.781 201.626 393.716 200.409C393.666 199.196 394.608 198.152 395.825 198.087C397.039 198.038 398.082 198.979 398.147 200.196C398.197 201.41 397.255 202.453 396.038 202.518Z" fill="white"/>
<path d="M322.667 209.498C323.89 209.118 325.199 209.786 325.579 211.009C325.959 212.232 325.292 213.541 324.069 213.922C322.846 214.302 321.536 213.634 321.156 212.411C320.776 211.188 321.444 209.879 322.667 209.498Z" fill="white"/>
<path d="M311.821 213.05C312.995 212.675 314.229 213.326 314.607 214.485C314.982 215.659 314.331 216.893 313.172 217.271C312.012 217.65 310.764 216.995 310.385 215.836C310.01 214.662 310.661 213.428 311.821 213.05Z" fill="white"/>
<path d="M300.975 216.601C302.082 216.243 303.274 216.869 303.617 217.973C303.96 219.077 303.349 220.272 302.245 220.615C301.137 220.973 299.945 220.347 299.602 219.243C299.244 218.135 299.87 216.944 300.975 216.601Z" fill="white"/>
<path d="M290.143 220.155C291.199 219.817 292.322 220.396 292.66 221.452C292.997 222.507 292.418 223.63 291.363 223.968C290.307 224.306 289.184 223.727 288.847 222.671C288.509 221.616 289.088 220.493 290.143 220.155Z" fill="white"/>
<path d="M279.297 223.706C280.301 223.388 281.367 223.939 281.684 224.943C282.002 225.946 281.451 227.012 280.447 227.33C279.444 227.647 278.378 227.097 278.06 226.093C277.743 225.089 278.294 224.024 279.297 223.706Z" fill="white"/>
<path d="M268.451 227.257C269.403 226.96 270.396 227.479 270.712 228.419C271.013 229.355 270.49 230.364 269.55 230.68C268.611 230.996 267.605 230.458 267.289 229.518C266.974 228.578 267.511 227.573 268.451 227.257Z" fill="white"/>
<path d="M257.605 230.808C258.489 230.528 259.441 231.022 259.722 231.906C260.002 232.791 259.508 233.743 258.623 234.023C257.739 234.304 256.787 233.809 256.507 232.925C256.226 232.04 256.72 231.088 257.605 230.808Z" fill="white"/>
<path d="M246.759 234.359C247.591 234.099 248.486 234.565 248.749 235.382C249.01 236.215 248.544 237.11 247.726 237.373C246.894 237.633 245.999 237.168 245.735 236.35C245.475 235.517 245.941 234.623 246.759 234.359Z" fill="white"/>
<path d="M235.912 237.91C236.693 237.67 237.519 238.089 237.774 238.873C238.014 239.654 237.595 240.48 236.811 240.735C236.03 240.975 235.204 240.556 234.949 239.772C234.709 238.991 235.128 238.165 235.912 237.91Z" fill="white"/>
<path d="M225.081 241.465C225.795 241.242 226.579 241.636 226.802 242.349C227.04 243.066 226.631 243.847 225.917 244.07C225.204 244.293 224.42 243.899 224.197 243.185C223.974 242.471 224.368 241.688 225.081 241.465Z" fill="white"/>
<path d="M214.235 245.016C214.9 244.798 215.609 245.175 215.827 245.84C216.044 246.505 215.667 247.214 215.002 247.432C214.337 247.649 213.628 247.272 213.411 246.607C213.193 245.942 213.57 245.233 214.235 245.016Z" fill="white"/>
<path d="M203.389 248.567C204.002 248.369 204.653 248.718 204.854 249.316C205.052 249.929 204.703 250.581 204.105 250.782C203.492 250.979 202.84 250.63 202.64 250.032C202.442 249.419 202.791 248.768 203.389 248.567Z" fill="white"/>
<path d="M383.801 194.97C382.578 195.35 381.269 194.682 380.889 193.459C380.509 192.236 381.176 190.927 382.399 190.547C383.622 190.167 384.932 190.834 385.312 192.057C385.692 193.28 385.024 194.59 383.801 194.97Z" fill="white"/>
<path d="M394.647 191.419C393.473 191.794 392.239 191.143 391.861 189.983C391.486 188.809 392.137 187.575 393.296 187.197C394.456 186.819 395.705 187.473 396.083 188.632C396.461 189.792 395.807 191.04 394.647 191.419Z" fill="white"/>
<path d="M405.494 187.868C404.386 188.226 403.194 187.6 402.852 186.496C402.494 185.388 403.12 184.196 404.224 183.853C405.331 183.495 406.523 184.121 406.866 185.225C407.224 186.333 406.598 187.525 405.494 187.868Z" fill="white"/>
<path d="M325.587 217.167C326.673 216.472 328.108 216.788 328.788 217.871C329.482 218.957 329.167 220.392 328.084 221.071C327.001 221.751 325.563 221.451 324.883 220.368C324.188 219.281 324.504 217.847 325.587 217.167Z" fill="white"/>
<path d="M316.033 223.408C317.064 222.748 318.438 223.05 319.098 224.082C319.757 225.113 319.455 226.487 318.424 227.146C317.393 227.806 316.019 227.504 315.359 226.473C314.7 225.441 315.002 224.068 316.033 223.408Z" fill="white"/>
<path d="M306.479 229.649C307.455 229.024 308.768 229.313 309.393 230.289C310.017 231.265 309.728 232.579 308.752 233.203C307.776 233.827 306.463 233.539 305.838 232.563C305.214 231.587 305.503 230.273 306.479 229.649Z" fill="white"/>
<path d="M296.928 235.874C297.867 235.274 299.105 235.546 299.691 236.482C300.292 237.421 300.02 238.659 299.084 239.244C298.145 239.845 296.907 239.573 296.321 238.637C295.72 237.698 295.992 236.46 296.928 235.874Z" fill="white"/>
<path d="M287.991 245.574C289.016 245.8 290.031 245.151 290.256 244.125C290.481 243.1 289.833 242.086 288.807 241.86C287.782 241.635 286.767 242.283 286.542 243.309C286.317 244.335 286.965 245.349 287.991 245.574Z" fill="white"/>
<path d="M277.82 248.356C278.649 247.826 279.766 248.071 280.296 248.9C280.826 249.729 280.581 250.846 279.752 251.376C278.923 251.906 277.806 251.66 277.276 250.832C276.746 250.003 276.992 248.886 277.82 248.356Z" fill="white"/>
<path d="M380.878 187.316C379.791 188.011 378.357 187.696 377.677 186.613C376.997 185.529 377.298 184.092 378.381 183.412C379.464 182.732 380.902 183.032 381.581 184.115C382.276 185.202 381.961 186.636 380.878 187.316Z" fill="white"/>
<path d="M390.447 181.079C389.416 181.738 388.042 181.436 387.382 180.405C386.723 179.374 387.025 178 388.056 177.34C389.087 176.681 390.461 176.983 391.121 178.014C391.78 179.045 391.478 180.419 390.447 181.079Z" fill="white"/>
<path d="M400.001 174.838C399.025 175.462 397.712 175.173 397.087 174.197C396.463 173.221 396.752 171.908 397.728 171.284C398.704 170.659 400.017 170.948 400.642 171.924C401.266 172.9 400.977 174.214 400.001 174.838Z" fill="white"/>
<path d="M330.394 223.811C331.252 222.86 332.721 222.803 333.671 223.661C334.622 224.518 334.679 225.987 333.822 226.938C332.964 227.889 331.495 227.946 330.544 227.088C329.593 226.23 329.536 224.762 330.394 223.811Z" fill="white"/>
<path d="M322.78 232.314C323.613 231.405 325.003 231.346 325.912 232.179C326.821 233.012 326.879 234.402 326.046 235.311C325.214 236.22 323.824 236.278 322.915 235.445C322.006 234.612 321.947 233.223 322.78 232.314Z" fill="white"/>
<path d="M315.166 240.817C315.956 239.961 317.285 239.89 318.14 240.679C318.995 241.468 319.067 242.798 318.278 243.653C317.488 244.508 316.159 244.58 315.304 243.791C314.449 243.001 314.377 241.672 315.166 240.817Z" fill="white"/>
<path d="M307.556 249.305C308.305 248.488 309.567 248.433 310.384 249.182C311.2 249.932 311.255 251.194 310.506 252.011C309.757 252.827 308.494 252.882 307.678 252.133C306.861 251.384 306.806 250.121 307.556 249.305Z" fill="white"/>
<path d="M376.074 180.658C375.216 181.609 373.748 181.666 372.797 180.808C371.846 179.95 371.789 178.481 372.647 177.53C373.505 176.579 374.973 176.522 375.924 177.38C376.875 178.238 376.932 179.707 376.074 180.658Z" fill="white"/>
<path d="M383.7 172.173C382.867 173.082 381.477 173.14 380.568 172.308C379.659 171.475 379.601 170.085 380.434 169.176C381.266 168.267 382.656 168.208 383.565 169.041C384.474 169.874 384.533 171.264 383.7 172.173Z" fill="white"/>
<path d="M391.314 163.67C390.524 164.525 389.195 164.597 388.34 163.808C387.485 163.018 387.413 161.689 388.202 160.834C388.992 159.978 390.321 159.907 391.176 160.696C392.031 161.485 392.103 162.815 391.314 163.67Z" fill="white"/>
<path d="M398.928 155.167C398.178 155.984 396.916 156.038 396.1 155.289C395.283 154.54 395.228 153.278 395.977 152.461C396.727 151.644 397.989 151.59 398.805 152.339C399.622 153.088 399.677 154.35 398.928 155.167Z" fill="white"/>
<path d="M406.538 146.679C405.829 147.457 404.631 147.51 403.853 146.801C403.075 146.092 403.022 144.893 403.731 144.115C404.44 143.337 405.639 143.284 406.416 143.993C407.194 144.703 407.247 145.901 406.538 146.679Z" fill="white"/>
<path d="M336.757 228.992C337.34 227.854 338.752 227.404 339.887 228.002C341.025 228.584 341.474 229.997 340.877 231.132C340.294 232.27 338.882 232.719 337.747 232.121C336.609 231.539 336.16 230.126 336.757 228.992Z" fill="white"/>
<path d="M331.607 239.176C332.161 238.095 333.506 237.662 334.599 238.235C335.68 238.789 336.112 240.134 335.54 241.227C334.986 242.308 333.64 242.74 332.548 242.168C331.466 241.614 331.034 240.268 331.607 239.176Z" fill="white"/>
<path d="M326.441 249.356C326.985 248.321 328.245 247.917 329.284 248.446C330.32 248.99 330.724 250.25 330.195 251.289C329.65 252.325 328.39 252.729 327.351 252.199C326.316 251.655 325.912 250.395 326.441 249.356Z" fill="white"/>
<path d="M369.708 175.492C369.125 176.63 367.713 177.079 366.578 176.481C365.44 175.899 364.991 174.487 365.588 173.352C366.171 172.214 367.583 171.764 368.718 172.362C369.856 172.944 370.305 174.357 369.708 175.492Z" fill="white"/>
<path d="M374.873 165.311C374.319 166.392 372.974 166.824 371.881 166.252C370.8 165.698 370.368 164.352 370.94 163.26C371.494 162.178 372.84 161.746 373.933 162.319C375.014 162.873 375.446 164.218 374.873 165.311Z" fill="white"/>
<path d="M380.024 155.127C379.48 156.163 378.22 156.566 377.181 156.037C376.145 155.493 375.741 154.233 376.27 153.194C376.815 152.158 378.074 151.755 379.113 152.284C380.149 152.828 380.553 154.088 380.024 155.127Z" fill="white"/>
<path d="M385.189 144.946C384.674 145.925 383.466 146.308 382.484 145.808C381.505 145.292 381.122 144.084 381.622 143.102C382.123 142.12 383.346 141.74 384.328 142.241C385.307 142.756 385.69 143.964 385.189 144.946Z" fill="white"/>
<path d="M390.336 134.777C389.846 135.714 388.708 136.066 387.783 135.593C386.846 135.102 386.495 133.965 386.967 133.04C387.44 132.115 388.596 131.752 389.521 132.224C390.457 132.715 390.809 133.853 390.336 134.777Z" fill="white"/>
<path d="M395.502 124.597C395.04 125.476 393.966 125.826 393.086 125.364C392.206 124.901 391.857 123.827 392.319 122.948C392.782 122.068 393.856 121.718 394.735 122.181C395.615 122.643 395.964 123.717 395.502 124.597Z" fill="white"/>
<path d="M400.652 114.413C400.218 115.235 399.212 115.568 398.374 115.131C397.551 114.697 397.222 113.675 397.656 112.852C398.09 112.03 399.097 111.697 399.935 112.134C400.757 112.568 401.09 113.575 400.652 114.413Z" fill="white"/>
<path d="M405.818 104.232C405.409 105.013 404.457 105.31 403.692 104.904C402.911 104.495 402.614 103.544 403.02 102.778C403.429 101.998 404.38 101.7 405.146 102.106C405.926 102.515 406.224 103.467 405.818 104.232Z" fill="white"/>
</g>
</g>
<path d="M360.63 191.493H360.145C355.002 191.493 349.859 191.493 344.717 191.495C344.533 191.495 344.346 191.506 344.168 191.546C343.097 191.784 342.338 192.746 342.327 193.898C342.315 195.218 342.323 196.538 342.326 197.859C342.326 197.988 342.348 198.116 342.358 198.233C342.801 198.33 345.985 198.314 346.317 198.211C346.39 197.355 346.28 196.477 346.381 195.58C346.556 195.57 346.698 195.554 346.839 195.554C349.964 195.553 353.089 195.553 356.215 195.554C356.694 195.554 356.699 195.562 356.703 196.044C356.703 196.057 356.703 196.071 356.703 196.084C356.703 199.992 356.704 203.9 356.701 207.807C356.701 207.993 356.683 208.18 356.65 208.363C356.521 209.087 356.025 209.513 355.307 209.518C354.555 209.523 353.803 209.519 353.052 209.519C352.722 209.519 352.393 209.515 352.063 209.52C351.691 209.526 351.67 209.552 351.661 209.939C351.661 209.952 351.661 209.966 351.661 209.979C351.661 211.033 351.66 212.086 351.663 213.14C351.663 213.269 351.684 213.398 351.7 213.579H352.195C353.58 213.579 354.965 213.571 356.349 213.582C357.081 213.587 357.765 213.412 358.394 213.051C359.792 212.246 360.637 211.031 360.647 209.395C360.682 203.593 360.661 197.792 360.66 191.99C360.66 191.847 360.644 191.704 360.632 191.492L360.63 191.493ZM346.346 206.23C346.229 206.195 346.179 206.168 346.13 206.168C344.958 206.164 343.785 206.163 342.613 206.16C342.415 206.159 342.324 206.254 342.326 206.452C342.328 206.759 342.324 207.065 342.324 207.371C342.324 207.958 342.328 208.544 342.322 209.13C342.318 209.485 342.289 209.507 341.932 209.518C341.84 209.52 341.748 209.518 341.655 209.518C340.931 209.518 340.206 209.517 339.482 209.519C339.019 209.521 339.004 209.533 339.003 209.979C339 211.032 339.001 212.084 339.004 213.137C339.004 213.266 339.024 213.395 339.038 213.554C339.211 213.563 339.352 213.577 339.493 213.577C340.27 213.58 341.048 213.577 341.825 213.581C341.977 213.581 342.129 213.606 342.325 213.623C342.325 213.822 342.325 213.98 342.325 214.137C342.325 214.937 342.323 215.736 342.326 216.536C342.328 216.976 342.345 216.996 342.764 216.998C343.818 217.001 344.872 217 345.926 216.997C346.051 216.997 346.177 216.971 346.34 216.953C346.34 216.769 346.34 216.624 346.34 216.48C346.34 215.707 346.34 214.934 346.34 214.161C346.34 213.774 346.538 213.58 346.934 213.579C347.685 213.579 348.436 213.581 349.187 213.578C349.327 213.577 349.467 213.558 349.595 213.549C349.692 213.141 349.686 209.906 349.588 209.547C349.459 209.538 349.317 209.521 349.176 209.52C348.399 209.518 347.622 209.521 346.844 209.517C346.693 209.516 346.541 209.491 346.347 209.473V206.23L346.346 206.23ZM361.944 190.231V190.894C361.944 196.415 361.944 201.935 361.944 207.456C361.944 207.602 361.939 207.75 361.949 207.896C361.955 207.976 361.991 208.053 362.039 208.223C362.096 208.114 362.114 208.08 362.133 208.044C362.72 206.928 363.314 205.814 363.89 204.691C363.97 204.535 363.996 204.335 363.996 204.155C364.001 198.915 364 193.674 363.999 188.434C363.999 188.305 363.985 188.177 363.976 188.035C363.87 188.02 363.791 187.994 363.717 188.002C357.369 188.687 351.022 189.376 344.675 190.067C344.659 190.068 344.647 190.105 344.592 190.187C345.346 190.199 346.061 190.191 346.776 190.192C347.488 190.194 348.2 190.192 348.911 190.192H351.086C351.798 190.192 352.51 190.188 353.222 190.194C353.946 190.2 354.671 190.222 355.395 190.229C356.12 190.235 356.845 190.23 357.57 190.23C358.282 190.23 358.994 190.23 359.706 190.23C360.417 190.23 361.15 190.23 361.943 190.23L361.944 190.231Z" fill="black"/>
<path d="M360.63 191.493C360.643 191.705 360.658 191.848 360.658 191.991C360.659 197.793 360.68 203.595 360.645 209.396C360.635 211.032 359.79 212.248 358.392 213.052C357.764 213.413 357.08 213.589 356.348 213.583C354.963 213.572 353.578 213.58 352.194 213.58H351.698C351.682 213.398 351.661 213.27 351.661 213.141C351.658 212.087 351.66 211.034 351.66 209.98C351.66 209.967 351.66 209.953 351.66 209.94C351.669 209.553 351.689 209.527 352.061 209.522C352.391 209.516 352.721 209.52 353.05 209.52C353.802 209.52 354.553 209.524 355.305 209.519C356.023 209.514 356.519 209.088 356.648 208.364C356.681 208.181 356.7 207.994 356.7 207.809C356.703 203.901 356.702 199.993 356.702 196.085C356.702 196.072 356.702 196.059 356.702 196.045C356.697 195.563 356.693 195.555 356.213 195.555C353.088 195.554 349.963 195.554 346.838 195.555C346.696 195.555 346.554 195.571 346.38 195.581C346.278 196.478 346.388 197.356 346.316 198.213C345.984 198.315 342.8 198.331 342.357 198.234C342.346 198.117 342.325 197.988 342.324 197.86C342.322 196.54 342.314 195.219 342.326 193.899C342.336 192.747 343.096 191.786 344.166 191.547C344.344 191.507 344.532 191.496 344.715 191.496C349.858 191.493 355.001 191.494 360.143 191.494H360.629L360.63 191.493Z" fill="#7EC34D"/>
<path d="M346.346 206.23V209.473C346.54 209.491 346.691 209.516 346.843 209.517C347.62 209.521 348.397 209.518 349.175 209.52C349.316 209.52 349.457 209.538 349.586 209.546C349.684 209.906 349.69 213.14 349.594 213.548C349.466 213.558 349.326 213.577 349.185 213.577C348.434 213.581 347.683 213.579 346.932 213.579C346.537 213.579 346.339 213.773 346.339 214.161C346.338 214.934 346.339 215.706 346.339 216.479C346.339 216.624 346.339 216.768 346.339 216.953C346.175 216.971 346.05 216.996 345.924 216.996C344.87 217 343.816 217 342.762 216.997C342.344 216.996 342.326 216.976 342.325 216.536C342.322 215.736 342.324 214.937 342.323 214.137C342.323 213.979 342.323 213.822 342.323 213.623C342.128 213.605 341.976 213.581 341.824 213.58C341.046 213.576 340.269 213.579 339.492 213.577C339.35 213.577 339.209 213.563 339.036 213.553C339.023 213.394 339.002 213.266 339.002 213.137C338.999 212.084 338.999 211.031 339.001 209.979C339.002 209.533 339.017 209.52 339.48 209.519C340.205 209.516 340.929 209.518 341.654 209.518C341.746 209.518 341.838 209.52 341.93 209.517C342.288 209.506 342.317 209.485 342.32 209.13C342.327 208.544 342.322 207.958 342.323 207.371C342.323 207.064 342.326 206.758 342.324 206.452C342.323 206.253 342.413 206.159 342.611 206.159C343.783 206.163 344.956 206.163 346.128 206.167C346.178 206.167 346.227 206.195 346.344 206.229L346.346 206.23Z" fill="#7EC34D"/>
<path d="M361.944 190.231C361.151 190.231 360.429 190.231 359.707 190.231C358.985 190.231 358.283 190.231 357.571 190.231C356.846 190.231 356.121 190.236 355.396 190.229C354.672 190.223 353.948 190.2 353.223 190.194C352.511 190.188 351.799 190.193 351.088 190.193H348.912C348.2 190.193 347.488 190.194 346.777 190.193C346.062 190.192 345.348 190.199 344.594 190.187C344.649 190.105 344.66 190.069 344.676 190.067C351.022 189.376 357.369 188.687 363.717 188.002C363.791 187.994 363.87 188.02 363.976 188.035C363.985 188.177 363.999 188.305 363.999 188.434C364 193.674 364.001 198.915 363.995 204.155C363.995 204.335 363.969 204.535 363.889 204.691C363.313 205.814 362.72 206.928 362.132 208.044C362.114 208.08 362.095 208.114 362.038 208.223C361.991 208.053 361.955 207.976 361.949 207.896C361.938 207.75 361.944 207.603 361.944 207.456C361.944 201.935 361.944 196.415 361.944 190.894V190.231H361.944Z" fill="white"/>
</g>
<defs>
<filter id="filter0_d_13_390" x="0" y="0" width="408" height="258" filterUnits="userSpaceOnUse" color-interpolation-filters="sRGB">
<feFlood flood-opacity="0" result="BackgroundImageFix"/>
<feColorMatrix in="SourceAlpha" type="matrix" values="0 0 0 0 0 0 0 0 0 0 0 0 0 0 0 0 0 0 127 0" result="hardAlpha"/>
<feOffset dy="4"/>
<feGaussianBlur stdDeviation="2"/>
<feComposite in2="hardAlpha" operator="out"/>
<feColorMatrix type="matrix" values="0 0 0 0 0 0 0 0 0 0 0 0 0 0 0 0 0 0 0.25 0"/>
<feBlend mode="normal" in2="BackgroundImageFix" result="effect1_dropShadow_13_390"/>
<feBlend mode="normal" in="SourceGraphic" in2="effect1_dropShadow_13_390" result="shape"/>
</filter>
<linearGradient id="paint0_linear_13_390" x1="204" y1="0" x2="204" y2="250" gradientUnits="userSpaceOnUse">
<stop stop-color="#7EC34F"/>
<stop offset="0.802885" stop-color="#1C5F89"/>
</linearGradient>
<linearGradient id="paint1_linear_13_390" x1="204" y1="0" x2="204" y2="250" gradientUnits="userSpaceOnUse">
<stop stop-color="#7EC34F"/>
<stop offset="0.802885" stop-color="#1C5F89"/>
</linearGradient>
</defs>
</svg>
